{
	"asset":{
		"version":"2.0",
		"generator":"Created using the official Cinema 4D glTF Exporter 1.000x284978"
	},
	"images":[{
		"uri":"data:image/jpeg;base64,"
	}],
	"scenes":[{
		"nodes":[0]
	}],
	"nodes":[{
		"name":"Distribution Box",
		"translation":[-72.49928283691406,
		129.41717529296876,
		93.59510040283203],
		"rotation":[0.0,
		0.0,
		0.0,
		-1.0],
		"scale":[1.0,
		1.0,
		1.0],
		"mesh":0
	}],
	"materials":[{
		"pbrMetallicRoughness":{
			"baseColorTexture":{
				"index":0
			},
			"baseColorFactor":[0.8,
			0.8,
			0.8,
			1.0],
			"metallicFactor":0.15,
			"roughnessFactor":0.14
		},
		"emissiveFactor":[0.0,
		0.0,
		0.0],
		"alphaMode":"OPAQUE",
		"doubleSided":false,
		"name":""
	}],
	"meshes":[{
		"name":"Distribution Box",
		"primitives":[{
			"attributes":{
				"POSITION":1,
				"NORMAL":2,
				"TEXCOORD_0":3
			},
			"indices":0,
			"material":0
		}]
	}],
	"accessors":[{
		"bufferView":0,
		"type":"SCALAR",
		"componentType":5123,
		"count":1584,
		"byteOffset":0,
		"min":[0],
		"max":[807]
	},
	{
		"bufferView":1,
		"type":"VEC3",
		"componentType":5126,
		"count":808,
		"byteOffset":0,
		"min":[-77.50071716308594,
		-129.41717529296876,
		-93.59510040283203],
		"max":[72.65453338623047,
		93.30833435058594,
		17.81279182434082]
	},
	{
		"bufferView":1,
		"type":"VEC3",
		"componentType":5126,
		"count":808,
		"byteOffset":12,
		"min":[-1.0,
		-1.0,
		-1.0],
		"max":[1.0,
		1.0,
		1.0]
	},
	{
		"bufferView":1,
		"type":"VEC2",
		"componentType":5126,
		"count":808,
		"byteOffset":24,
		"min":[0.012698717415332795,
		0.014731306582689286],
		"max":[0.991797149181366,
		0.9536421298980713]
	}],
	"bufferViews":[{
		"buffer":0,
		"byteOffset":0,
		"byteLength":3168,
		"target":34963
	},
	{
		"buffer":0,
		"byteOffset":3168,
		"byteLength":25856,
		"target":34962,
		"byteStride":32
	}],
	"buffers":[{
		"uri":"data:application/octet-stream;base64,",
		"byteLength":29024
	}],
	"samplers":[{
		"magFilter":9729,
		"minFilter":9729,
		"wrapS":10497,
		"wrapT":10497
	}],
	"textures":[{
		"sampler":0,
		"source":0
	}]
}