{
	"asset":{
		"version":"2.0",
		"generator":"Created using the official Cinema 4D glTF Exporter 1.000x284978"
	},
	"scenes":[{
		"nodes":[0]
	}],
	"nodes":[{
		"name":"fence",
		"translation":[531.7998657226563,
		105.00012969970703,
		141.99993896484376],
		"rotation":[0.0,
		0.0,
		0.0,
		-1.0],
		"scale":[1.0,
		1.0,
		1.0],
		"children":[1,
		2,
		3,
		4]
	},
	{
		"name":"fence-line",
		"mesh":0
	},
	{
		"name":"fence-Mat3d66-10278655-3-31610",
		"mesh":1
	},
	{
		"name":"fence-Mat3d66-10278655-2-69985",
		"mesh":2
	},
	{
		"name":"fence-Mat3d66-10278655-42-18108",
		"mesh":3
	}],
	"materials":[{
		"pbrMetallicRoughness":{
			"baseColorFactor":[0.8,
			0.7206666666666667,
			0.12000000000000003,
			1.0],
			"metallicFactor":0.0,
			"roughnessFactor":0.5
		},
		"emissiveFactor":[0.0,
		0.0,
		0.0],
		"alphaMode":"OPAQUE",
		"doubleSided":false,
		"name":"line"
	},
	{
		"pbrMetallicRoughness":{
			"baseColorFactor":[0.8,
			0.8,
			0.8,
			1.0],
			"metallicFactor":0.0,
			"roughnessFactor":0.5
		},
		"emissiveFactor":[0.0,
		0.0,
		0.0],
		"alphaMode":"OPAQUE",
		"doubleSided":false,
		"name":"Mat3d66-10278655-3-31610"
	},
	{
		"pbrMetallicRoughness":{
			"baseColorFactor":[0.08627451211214066,
			0.08627451211214066,
			0.08627451211214066,
			1.0],
			"metallicFactor":1.0,
			"roughnessFactor":1.0
		},
		"emissiveFactor":[0.0,
		0.0,
		0.0],
		"alphaMode":"OPAQUE",
		"doubleSided":false,
		"name":"Mat3d66-10278655-2-69985"
	},
	{
		"pbrMetallicRoughness":{
			"baseColorFactor":[0.01960784383118155,
			0.8431373238563538,
			0.30980393290519717,
			1.0],
			"metallicFactor":1.0,
			"roughnessFactor":1.0
		},
		"emissiveFactor":[0.0,
		0.0,
		0.0],
		"alphaMode":"OPAQUE",
		"doubleSided":false,
		"name":"Mat3d66-10278655-42-18108"
	}],
	"meshes":[{
		"name":"fence-line",
		"primitives":[{
			"attributes":{
				"POSITION":1,
				"NORMAL":2
			},
			"indices":0,
			"material":0
		}]
	},
	{
		"name":"fence-Mat3d66-10278655-3-31610",
		"primitives":[{
			"attributes":{
				"POSITION":4,
				"NORMAL":5
			},
			"indices":3,
			"material":1
		}]
	},
	{
		"name":"fence-Mat3d66-10278655-2-69985",
		"primitives":[{
			"attributes":{
				"POSITION":7,
				"NORMAL":8
			},
			"indices":6,
			"material":2
		}]
	},
	{
		"name":"fence-Mat3d66-10278655-42-18108",
		"primitives":[{
			"attributes":{
				"POSITION":10,
				"NORMAL":11
			},
			"indices":9,
			"material":3
		}]
	}],
	"accessors":[{
		"bufferView":0,
		"type":"SCALAR",
		"componentType":5123,
		"count":4068,
		"byteOffset":0,
		"min":[0],
		"max":[2711]
	},
	{
		"bufferView":1,
		"type":"VEC3",
		"componentType":5126,
		"count":2712,
		"byteOffset":0,
		"min":[-4475.00146484375,
		94.99984741210938,
		-3550.00048828125],
		"max":[4475.00048828125,
		105.00016021728516,
		3548.8525390625]
	},
	{
		"bufferView":1,
		"type":"VEC3",
		"componentType":5126,
		"count":2712,
		"byteOffset":12,
		"min":[-1.0,
		-1.0,
		-1.0],
		"max":[1.0,
		1.0,
		1.0]
	},
	{
		"bufferView":2,
		"type":"SCALAR",
		"componentType":5123,
		"count":4068,
		"byteOffset":0,
		"min":[0],
		"max":[2711]
	},
	{
		"bufferView":3,
		"type":"VEC3",
		"componentType":5126,
		"count":2712,
		"byteOffset":0,
		"min":[-4475.00146484375,
		-105.00013732910156,
		-3550.00048828125],
		"max":[4475.00048828125,
		94.9998550415039,
		3548.8525390625]
	},
	{
		"bufferView":3,
		"type":"VEC3",
		"componentType":5126,
		"count":2712,
		"byteOffset":12,
		"min":[-1.0,
		-1.0,
		-1.0],
		"max":[1.0,
		1.0,
		1.0]
	},
	{
		"bufferView":4,
		"type":"SCALAR",
		"componentType":5123,
		"count":156,
		"byteOffset":0,
		"min":[0],
		"max":[95]
	},
	{
		"bufferView":5,
		"type":"VEC3",
		"componentType":5126,
		"count":96,
		"byteOffset":0,
		"min":[-4485.00048828125,
		-105.00016021728516,
		-3560.000244140625],
		"max":[4485.00048828125,
		94.99983978271485,
		3560.000244140625]
	},
	{
		"bufferView":5,
		"type":"VEC3",
		"componentType":5126,
		"count":96,
		"byteOffset":12,
		"min":[-1.0,
		-1.0,
		-1.0],
		"max":[1.0,
		1.0,
		1.0]
	},
	{
		"bufferView":6,
		"type":"SCALAR",
		"componentType":5123,
		"count":156,
		"byteOffset":0,
		"min":[0],
		"max":[87]
	},
	{
		"bufferView":7,
		"type":"VEC3",
		"componentType":5126,
		"count":88,
		"byteOffset":0,
		"min":[-4485.00048828125,
		94.99983978271485,
		-3560.000244140625],
		"max":[4485.00048828125,
		104.99983978271485,
		3560.000244140625]
	},
	{
		"bufferView":7,
		"type":"VEC3",
		"componentType":5126,
		"count":88,
		"byteOffset":12,
		"min":[-1.0,
		-1.0,
		-1.0],
		"max":[1.0,
		1.0,
		1.0]
	}],
	"bufferViews":[{
		"buffer":0,
		"byteOffset":0,
		"byteLength":8136,
		"target":34963
	},
	{
		"buffer":0,
		"byteOffset":8136,
		"byteLength":65088,
		"target":34962,
		"byteStride":24
	},
	{
		"buffer":1,
		"byteOffset":0,
		"byteLength":8136,
		"target":34963
	},
	{
		"buffer":1,
		"byteOffset":8136,
		"byteLength":65088,
		"target":34962,
		"byteStride":24
	},
	{
		"buffer":2,
		"byteOffset":0,
		"byteLength":312,
		"target":34963
	},
	{
		"buffer":2,
		"byteOffset":312,
		"byteLength":2304,
		"target":34962,
		"byteStride":24
	},
	{
		"buffer":3,
		"byteOffset":0,
		"byteLength":312,
		"target":34963
	},
	{
		"buffer":3,
		"byteOffset":312,
		"byteLength":2112,
		"target":34962,
		"byteStride":24
	}],
	"buffers":[{
		"uri":"data:application/octet-stream;base64,",
		"byteLength":73224
	},
	{
		"uri":"data:application/octet-stream;base64,",
		"byteLength":73224
	},
	{
		"uri":"data:application/octet-stream;base64,",
		"byteLength":2616
	},
	{
		"uri":"data:application/octet-stream;base64,",
		"byteLength":2424
	}]
}