{
	"asset":{
		"version":"2.0",
		"generator":"Created using the official Cinema 4D glTF Exporter 1.000x284978"
	},
	"scenes":[{
		"nodes":[0]
	}],
	"nodes":[{
		"name":"空白",
		"children":[1,
		2,
		3,
		4]
	},
	{
		"name":"平面",
		"translation":[-161.40625,
		377.8624572753906,
		-125.43234252929688],
		"rotation":[-0.7071067690849304,
		0.0,
		0.0,
		-0.7071067690849304],
		"scale":[1.0,
		1.0,
		1.0],
		"mesh":0
	},
	{
		"name":"glass",
		"translation":[-100.78125,
		4.7126312255859379,
		-43.634246826171878],
		"rotation":[0.0,
		0.0,
		0.0,
		-1.0],
		"scale":[1.0,
		1.0,
		1.0],
		"mesh":1
	},
	{
		"name":"Obj3d66_10278655_275_342",
		"translation":[63.59375,
		-336.28759765625,
		294.5676574707031],
		"rotation":[-1.1102230246251566e-16,
		0.0,
		0.0,
		-1.0],
		"scale":[1.0,
		1.0,
		1.0],
		"mesh":2
	},
	{
		"name":"Obj3d66_10278655_274_39",
		"translation":[198.59375,
		-46.287506103515628,
		-125.50106811523438],
		"rotation":[0.0,
		0.0,
		0.0,
		-1.0],
		"scale":[1.0,
		1.0,
		1.0],
		"children":[5,
		6]
	},
	{
		"name":"Obj3d66_10278655_274_39-材质",
		"mesh":3
	},
	{
		"name":"Obj3d66_10278655_274_39-Mat3d66-10278655-3-31610",
		"mesh":4
	}],
	"materials":[{
		"pbrMetallicRoughness":{
			"baseColorFactor":[0.8,
			0.48266666666666666,
			0.12000000000000003,
			1.0],
			"metallicFactor":0.0,
			"roughnessFactor":0.5
		},
		"emissiveFactor":[0.0,
		0.0,
		0.0],
		"alphaMode":"OPAQUE",
		"doubleSided":false,
		"name":"Cu"
	},
	{
		"pbrMetallicRoughness":{
			"baseColorFactor":[0.1137254983186722,
			0.12941177189350129,
			0.16862745583057404,
			0.2999999523162842],
			"metallicFactor":0.0,
			"roughnessFactor":0.5
		},
		"emissiveFactor":[0.0,
		0.0,
		0.0],
		"alphaMode":"BLEND",
		"doubleSided":false,
		"name":"glass"
	},
	{
		"pbrMetallicRoughness":{
			"baseColorFactor":[0.08627451211214066,
			0.08627451211214066,
			0.08627451211214066,
			1.0],
			"metallicFactor":1.0,
			"roughnessFactor":1.0
		},
		"emissiveFactor":[0.0,
		0.0,
		0.0],
		"alphaMode":"OPAQUE",
		"doubleSided":false,
		"name":"Mat3d66-10278655-2-69985"
	},
	{
		"pbrMetallicRoughness":{
			"baseColorFactor":[0.8,
			0.8,
			0.8,
			1.0],
			"metallicFactor":0.0,
			"roughnessFactor":0.5
		},
		"emissiveFactor":[0.0,
		0.0,
		0.0],
		"alphaMode":"OPAQUE",
		"doubleSided":false,
		"name":"材质"
	},
	{
		"pbrMetallicRoughness":{
			"baseColorFactor":[0.8,
			0.8,
			0.8,
			1.0],
			"metallicFactor":0.0,
			"roughnessFactor":0.5
		},
		"emissiveFactor":[0.0,
		0.0,
		0.0],
		"alphaMode":"OPAQUE",
		"doubleSided":false,
		"name":"Mat3d66-10278655-3-31610"
	}],
	"meshes":[{
		"name":"平面",
		"primitives":[{
			"attributes":{
				"POSITION":1,
				"NORMAL":2,
				"TEXCOORD_0":3
			},
			"indices":0,
			"material":0
		}]
	},
	{
		"name":"glass",
		"primitives":[{
			"attributes":{
				"POSITION":5,
				"NORMAL":6,
				"TEXCOORD_0":7
			},
			"indices":4,
			"material":1
		}]
	},
	{
		"name":"Obj3d66_10278655_275_342",
		"primitives":[{
			"attributes":{
				"POSITION":9,
				"NORMAL":10,
				"TEXCOORD_0":11
			},
			"indices":8,
			"material":2
		}]
	},
	{
		"name":"Obj3d66_10278655_274_39-材质",
		"primitives":[{
			"attributes":{
				"POSITION":13,
				"NORMAL":14,
				"TEXCOORD_0":15
			},
			"indices":12,
			"material":3
		}]
	},
	{
		"name":"Obj3d66_10278655_274_39-Mat3d66-10278655-3-31610",
		"primitives":[{
			"attributes":{
				"POSITION":17,
				"NORMAL":18,
				"TEXCOORD_0":19
			},
			"indices":16,
			"material":4
		}]
	}],
	"accessors":[{
		"bufferView":0,
		"type":"SCALAR",
		"componentType":5123,
		"count":18,
		"byteOffset":0,
		"min":[0],
		"max":[11]
	},
	{
		"bufferView":1,
		"type":"VEC3",
		"componentType":5126,
		"count":12,
		"byteOffset":0,
		"min":[-274.41009521484377,
		-833.7025756835938,
		8.354876848953169e-14],
		"max":[396.69427490234377,
		841.3546752929688,
		181.3130645751953]
	},
	{
		"bufferView":1,
		"type":"VEC3",
		"componentType":5126,
		"count":12,
		"byteOffset":12,
		"min":[0.0,
		-1.8728183013923299e-16,
		-1.0],
		"max":[0.0,
		1.0,
		0.0]
	},
	{
		"bufferView":1,
		"type":"VEC2",
		"componentType":5126,
		"count":12,
		"byteOffset":24,
		"min":[0.0016667083837091923,
		0.0016667083837091923],
		"max":[0.9966915845870972,
		0.5838932991027832]
	},
	{
		"bufferView":2,
		"type":"SCALAR",
		"componentType":5123,
		"count":78,
		"byteOffset":0,
		"min":[0],
		"max":[51]
	},
	{
		"bufferView":3,
		"type":"VEC3",
		"componentType":5126,
		"count":52,
		"byteOffset":0,
		"min":[-343.1250305175781,
		-186.0,
		-833.8277587890625],
		"max":[343.125,
		95.99994659423828,
		756.814453125]
	},
	{
		"bufferView":3,
		"type":"VEC3",
		"componentType":5126,
		"count":52,
		"byteOffset":12,
		"min":[-1.0,
		0.0,
		0.0],
		"max":[1.0,
		6.253230822039768e-9,
		1.0]
	},
	{
		"bufferView":3,
		"type":"VEC2",
		"componentType":5126,
		"count":52,
		"byteOffset":24,
		"min":[-10.889392852783204,
		0.5266664028167725],
		"max":[12.230086326599121,
		1.4666662216186524]
	},
	{
		"bufferView":4,
		"type":"SCALAR",
		"componentType":5123,
		"count":72,
		"byteOffset":0,
		"min":[0],
		"max":[47]
	},
	{
		"bufferView":5,
		"type":"VEC3",
		"componentType":5126,
		"count":48,
		"byteOffset":0,
		"min":[-525.0,
		125.00025939941406,
		-1245.0],
		"max":[195.00025939941407,
		254.99998474121095,
		435.0]
	},
	{
		"bufferView":5,
		"type":"VEC3",
		"componentType":5126,
		"count":48,
		"byteOffset":12,
		"min":[-1.0,
		-1.0,
		-1.0],
		"max":[1.0,
		1.0,
		1.0]
	},
	{
		"bufferView":5,
		"type":"VEC2",
		"componentType":5126,
		"count":48,
		"byteOffset":24,
		"min":[-11.483338356018067,
		1.133333683013916],
		"max":[12.48333740234375,
		12.48333740234375]
	},
	{
		"bufferView":6,
		"type":"SCALAR",
		"componentType":5123,
		"count":1968,
		"byteOffset":0,
		"min":[0],
		"max":[1103]
	},
	{
		"bufferView":7,
		"type":"VEC3",
		"componentType":5126,
		"count":1104,
		"byteOffset":0,
		"min":[-647.5,
		-137.14076232910157,
		-751.9609375],
		"max":[48.75000762939453,
		147.0000762939453,
		843.6812744140625]
	},
	{
		"bufferView":7,
		"type":"VEC3",
		"componentType":5126,
		"count":1104,
		"byteOffset":12,
		"min":[-1.0,
		-1.0,
		-1.0],
		"max":[1.0,
		1.0,
		1.0]
	},
	{
		"bufferView":7,
		"type":"VEC2",
		"componentType":5126,
		"count":1104,
		"byteOffset":24,
		"min":[-11.445381164550782,
		0.5266664028167725],
		"max":[12.445381164550782,
		12.445381164550782]
	},
	{
		"bufferView":8,
		"type":"SCALAR",
		"componentType":5123,
		"count":1428,
		"byteOffset":0,
		"min":[0],
		"max":[822]
	},
	{
		"bufferView":9,
		"type":"VEC3",
		"componentType":5126,
		"count":823,
		"byteOffset":0,
		"min":[-930.0,
		-164.99990844726563,
		-854.9313354492188],
		"max":[60.000328063964847,
		474.99993896484377,
		855.0682373046875]
	},
	{
		"bufferView":9,
		"type":"VEC3",
		"componentType":5126,
		"count":823,
		"byteOffset":12,
		"min":[-1.0,
		-1.0,
		-1.0],
		"max":[1.0,
		1.0,
		1.0]
	},
	{
		"bufferView":9,
		"type":"VEC2",
		"componentType":5126,
		"count":823,
		"byteOffset":24,
		"min":[-11.48333740234375,
		-0.5666664838790894],
		"max":[12.48333740234375,
		12.48333740234375]
	}],
	"bufferViews":[{
		"buffer":0,
		"byteOffset":0,
		"byteLength":36,
		"target":34963
	},
	{
		"buffer":0,
		"byteOffset":36,
		"byteLength":384,
		"target":34962,
		"byteStride":32
	},
	{
		"buffer":1,
		"byteOffset":0,
		"byteLength":156,
		"target":34963
	},
	{
		"buffer":1,
		"byteOffset":156,
		"byteLength":1664,
		"target":34962,
		"byteStride":32
	},
	{
		"buffer":2,
		"byteOffset":0,
		"byteLength":144,
		"target":34963
	},
	{
		"buffer":2,
		"byteOffset":144,
		"byteLength":1536,
		"target":34962,
		"byteStride":32
	},
	{
		"buffer":3,
		"byteOffset":0,
		"byteLength":3936,
		"target":34963
	},
	{
		"buffer":3,
		"byteOffset":3936,
		"byteLength":35328,
		"target":34962,
		"byteStride":32
	},
	{
		"buffer":4,
		"byteOffset":0,
		"byteLength":2856,
		"target":34963
	},
	{
		"buffer":4,
		"byteOffset":2856,
		"byteLength":26336,
		"target":34962,
		"byteStride":32
	}],
	"buffers":[{
		"uri":"data:application/octet-stream;base64,",
		"byteLength":420
	},
	{
		"uri":"data:application/octet-stream;base64,",
		"byteLength":1820
	},
	{
		"uri":"data:application/octet-stream;base64,",
		"byteLength":1680
	},
	{
		"uri":"data:application/octet-stream;base64,",
		"byteLength":39264
	},
	{
		"uri":"data:application/octet-stream;base64,",
		"byteLength":29192
	}]
}