{
	"asset":{
		"version":"2.0",
		"generator":"Created using the official Cinema 4D glTF Exporter 1.000x284978"
	},
	"scenes":[{
		"nodes":[0]
	}],
	"nodes":[{
		"name":"H_PeiDianXiang",
		"children":[1,
		2,
		3,
		4]
	},
	{
		"name":"H_PeiDianXiang",
		"mesh":0
	},
	{
		"name":"H_PeiDianXiang-Mat3d66-10278655-44-50299",
		"mesh":1
	},
	{
		"name":"H_PeiDianXiang-Mat3d66-10278655-43-81566",
		"mesh":2
	},
	{
		"name":"H_PeiDianXiang-metal",
		"mesh":3
	}],
	"materials":[{
		"pbrMetallicRoughness":{
			"baseColorFactor":[0.5882353186607361,
			0.0,
			0.0,
			1.0],
			"metallicFactor":1.0,
			"roughnessFactor":1.0
		},
		"emissiveFactor":[0.0,
		0.0,
		0.0],
		"alphaMode":"OPAQUE",
		"doubleSided":false,
		"name":"Mat3d66-10278655-44-50299"
	},
	{
		"pbrMetallicRoughness":{
			"baseColorFactor":[0.9960784912109375,
			0.7490196228027344,
			0.0,
			1.0],
			"metallicFactor":1.0,
			"roughnessFactor":1.0
		},
		"emissiveFactor":[0.0,
		0.0,
		0.0],
		"alphaMode":"OPAQUE",
		"doubleSided":false,
		"name":"Mat3d66-10278655-43-81566"
	},
	{
		"pbrMetallicRoughness":{
			"baseColorFactor":[0.744,
			0.8,
			0.6880000000000001,
			1.0],
			"metallicFactor":0.0,
			"roughnessFactor":0.5
		},
		"emissiveFactor":[0.0,
		0.0,
		0.0],
		"alphaMode":"OPAQUE",
		"doubleSided":false,
		"name":"metal"
	}],
	"meshes":[{
		"name":"H_PeiDianXiang",
		"primitives":[{
			"attributes":{
				"POSITION":1,
				"NORMAL":2,
				"TEXCOORD_0":3
			},
			"indices":0
		}]
	},
	{
		"name":"H_PeiDianXiang-Mat3d66-10278655-44-50299",
		"primitives":[{
			"attributes":{
				"POSITION":5,
				"NORMAL":6,
				"TEXCOORD_0":7
			},
			"indices":4,
			"material":0
		}]
	},
	{
		"name":"H_PeiDianXiang-Mat3d66-10278655-43-81566",
		"primitives":[{
			"attributes":{
				"POSITION":9,
				"NORMAL":10,
				"TEXCOORD_0":11
			},
			"indices":8,
			"material":1
		}]
	},
	{
		"name":"H_PeiDianXiang-metal",
		"primitives":[{
			"attributes":{
				"POSITION":13,
				"NORMAL":14,
				"TEXCOORD_0":15
			},
			"indices":12,
			"material":2
		}]
	}],
	"accessors":[{
		"bufferView":0,
		"type":"SCALAR",
		"componentType":5123,
		"count":4992,
		"byteOffset":0,
		"min":[0],
		"max":[2005]
	},
	{
		"bufferView":1,
		"type":"VEC3",
		"componentType":5126,
		"count":2006,
		"byteOffset":0,
		"min":[124.34943389892578,
		97.31135559082031,
		-111.03662872314453],
		"max":[141.8374786376953,
		127.83903503417969,
		-110.53692626953125]
	},
	{
		"bufferView":1,
		"type":"VEC3",
		"componentType":5126,
		"count":2006,
		"byteOffset":12,
		"min":[-1.0,
		-1.0,
		-1.0],
		"max":[1.0,
		1.0,
		1.0]
	},
	{
		"bufferView":1,
		"type":"VEC2",
		"componentType":5126,
		"count":2006,
		"byteOffset":24,
		"min":[0.0,
		0.0],
		"max":[0.0,
		0.0]
	},
	{
		"bufferView":2,
		"type":"SCALAR",
		"componentType":5123,
		"count":576,
		"byteOffset":0,
		"min":[0],
		"max":[191]
	},
	{
		"bufferView":3,
		"type":"VEC3",
		"componentType":5126,
		"count":192,
		"byteOffset":0,
		"min":[123.13883209228516,
		117.55899810791016,
		-110.62395477294922],
		"max":[143.01043701171876,
		134.09405517578126,
		-110.53678131103516]
	},
	{
		"bufferView":3,
		"type":"VEC3",
		"componentType":5126,
		"count":192,
		"byteOffset":12,
		"min":[-0.995093822479248,
		-0.999000072479248,
		-1.0],
		"max":[0.995093822479248,
		0.999125063419342,
		1.0]
	},
	{
		"bufferView":3,
		"type":"VEC2",
		"componentType":5126,
		"count":192,
		"byteOffset":24,
		"min":[0.0,
		0.0],
		"max":[0.0,
		0.0]
	},
	{
		"bufferView":4,
		"type":"SCALAR",
		"componentType":5123,
		"count":684,
		"byteOffset":0,
		"min":[0],
		"max":[263]
	},
	{
		"bufferView":5,
		"type":"VEC3",
		"componentType":5126,
		"count":264,
		"byteOffset":0,
		"min":[122.1949691772461,
		96.28302001953125,
		-111.05994415283203],
		"max":[143.5397186279297,
		134.4209442138672,
		-110.10100555419922]
	},
	{
		"bufferView":5,
		"type":"VEC3",
		"componentType":5126,
		"count":264,
		"byteOffset":12,
		"min":[-1.0,
		-1.0,
		-1.0],
		"max":[1.0,
		1.0,
		1.0]
	},
	{
		"bufferView":5,
		"type":"VEC2",
		"componentType":5126,
		"count":264,
		"byteOffset":24,
		"min":[0.0,
		0.0],
		"max":[0.0,
		0.0]
	},
	{
		"bufferView":6,
		"type":"SCALAR",
		"componentType":5123,
		"count":13644,
		"byteOffset":0,
		"min":[0],
		"max":[9087]
	},
	{
		"bufferView":7,
		"type":"VEC3",
		"componentType":5126,
		"count":9088,
		"byteOffset":0,
		"min":[-257.6000061035156,
		-97.73977661132813,
		-126.11709594726563],
		"max":[257.60009765625,
		203.2193603515625,
		126.11698913574219]
	},
	{
		"bufferView":7,
		"type":"VEC3",
		"componentType":5126,
		"count":9088,
		"byteOffset":12,
		"min":[-1.0,
		-1.0,
		-1.0],
		"max":[1.0,
		1.0,
		1.0]
	},
	{
		"bufferView":7,
		"type":"VEC2",
		"componentType":5126,
		"count":9088,
		"byteOffset":24,
		"min":[-12.087318420410157,
		-0.7815792560577393],
		"max":[13.087318420410157,
		2.395979404449463]
	}],
	"bufferViews":[{
		"buffer":0,
		"byteOffset":0,
		"byteLength":9984,
		"target":34963
	},
	{
		"buffer":0,
		"byteOffset":9984,
		"byteLength":64192,
		"target":34962,
		"byteStride":32
	},
	{
		"buffer":1,
		"byteOffset":0,
		"byteLength":1152,
		"target":34963
	},
	{
		"buffer":1,
		"byteOffset":1152,
		"byteLength":6144,
		"target":34962,
		"byteStride":32
	},
	{
		"buffer":2,
		"byteOffset":0,
		"byteLength":1368,
		"target":34963
	},
	{
		"buffer":2,
		"byteOffset":1368,
		"byteLength":8448,
		"target":34962,
		"byteStride":32
	},
	{
		"buffer":3,
		"byteOffset":0,
		"byteLength":27288,
		"target":34963
	},
	{
		"buffer":3,
		"byteOffset":27288,
		"byteLength":290816,
		"target":34962,
		"byteStride":32
	}],
	"buffers":[{
		"uri":"data:application/octet-stream;base64,",
		"byteLength":74176
	},
	{
		"uri":"data:application/octet-stream;base64,",
		"byteLength":7296
	},
	{
		"uri":"data:application/octet-stream;base64,",
		"byteLength":9816
	},
	{
		"uri":"data:application/octet-stream;base64,",
		"byteLength":318104
	}]
}