{
	"asset":{
		"version":"2.0",
		"generator":"Created using the official Cinema 4D glTF Exporter 1.000x284978"
	},
	"scenes":[{
		"nodes":[0]
	}],
	"nodes":[{
		"name":"house05",
		"translation":[0.0,
		0.0,
		0.0],
		"rotation":[0.7071067690849304,
		0.0,
		0.0,
		-0.7071067690849304],
		"scale":[1.0,
		1.0,
		1.0],
		"children":[1,
		2,
		3,
		4,
		5,
		8,
		9]
	},
	{
		"name":"rail",
		"translation":[-2.909423828125,
		-1260.0880126953126,
		60.333892822265628],
		"rotation":[0.0,
		0.0,
		0.0,
		-1.0],
		"scale":[1.0,
		1.0,
		1.0],
		"mesh":0
	},
	{
		"name":"stair",
		"translation":[36.25123977661133,
		-1524.2471923828126,
		-146.4886016845703],
		"rotation":[1.2488455070069905e-7,
		1.2488453648984433e-7,
		-0.7071067094802856,
		-0.7071068286895752],
		"scale":[3.7351226806640627,
		3.6762990951538088,
		2.438019037246704],
		"mesh":1
	},
	{
		"name":"111",
		"translation":[-2.69317626953125,
		126.27337646484375,
		120.11729431152344],
		"rotation":[-0.7071067690849304,
		0.0,
		0.0,
		-0.7071067690849304],
		"scale":[1.0,
		1.0,
		1.0],
		"mesh":2
	},
	{
		"name":"rr",
		"translation":[-22.885498046875,
		661.7435913085938,
		-352.1132507324219],
		"rotation":[0.0,
		0.0,
		0.0,
		-1.0],
		"scale":[1.0,
		1.0,
		1.0],
		"mesh":3
	},
	{
		"name":"wall",
		"translation":[-12.897415161132813,
		-299.1720886230469,
		-255.12158203125],
		"rotation":[-0.7071067690849304,
		0.0,
		0.0,
		-0.7071067690849304],
		"scale":[1.0,
		1.0,
		1.0],
		"children":[6,
		7]
	},
	{
		"name":"wall-材质",
		"mesh":4
	},
	{
		"name":"wall-Mat3d66-10278655-42-18108",
		"mesh":5
	},
	{
		"name":"Obj3d66_10278655_2373_288",
		"translation":[-2.909423828125,
		96.3480224609375,
		57.833892822265628],
		"rotation":[0.0,
		0.0,
		0.0,
		-1.0],
		"scale":[1.0,
		1.0,
		1.0],
		"mesh":6
	},
	{
		"name":"doorFrame",
		"translation":[558.326904296875,
		149.53594970703126,
		-255.12158203125],
		"rotation":[-0.7071067690849304,
		0.0,
		0.0,
		-0.7071067690849304],
		"scale":[1.0,
		1.0,
		1.0],
		"mesh":7
	}],
	"materials":[{
		"pbrMetallicRoughness":{
			"baseColorFactor":[0.8,
			0.8,
			0.8,
			1.0],
			"metallicFactor":0.0,
			"roughnessFactor":0.5
		},
		"emissiveFactor":[0.0,
		0.0,
		0.0],
		"alphaMode":"OPAQUE",
		"doubleSided":false,
		"name":"Mat3d66-10278655-3-31610"
	},
	{
		"pbrMetallicRoughness":{
			"baseColorFactor":[0.21,
			0.17178,
			0.1281,
			1.0],
			"metallicFactor":0.0,
			"roughnessFactor":0.5
		},
		"emissiveFactor":[0.0,
		0.0,
		0.0],
		"alphaMode":"OPAQUE",
		"doubleSided":false,
		"name":"chian2"
	},
	{
		"pbrMetallicRoughness":{
			"baseColorFactor":[0.8,
			0.48266666666666666,
			0.12000000000000003,
			1.0],
			"metallicFactor":0.0,
			"roughnessFactor":0.5
		},
		"emissiveFactor":[0.0,
		0.0,
		0.0],
		"alphaMode":"OPAQUE",
		"doubleSided":false,
		"name":"Cu"
	},
	{
		"pbrMetallicRoughness":{
			"baseColorFactor":[0.12000000000000003,
			0.24466666666666629,
			0.8,
			1.0],
			"metallicFactor":0.0,
			"roughnessFactor":0.5
		},
		"emissiveFactor":[0.0,
		0.0,
		0.0],
		"alphaMode":"OPAQUE",
		"doubleSided":false,
		"name":"line"
	},
	{
		"pbrMetallicRoughness":{
			"baseColorFactor":[0.2,
			0.22999999999999938,
			0.8,
			1.0],
			"metallicFactor":0.0,
			"roughnessFactor":0.5
		},
		"emissiveFactor":[0.0,
		0.0,
		0.0],
		"alphaMode":"OPAQUE",
		"doubleSided":false,
		"name":"材质"
	},
	{
		"pbrMetallicRoughness":{
			"baseColorFactor":[0.8431373238563538,
			0.8431373238563538,
			0.8431373238563538,
			1.0],
			"metallicFactor":1.0,
			"roughnessFactor":1.0
		},
		"emissiveFactor":[0.0,
		0.0,
		0.0],
		"alphaMode":"OPAQUE",
		"doubleSided":false,
		"name":"Mat3d66-10278655-42-18108"
	},
	{
		"pbrMetallicRoughness":{
			"baseColorFactor":[0.0,
			0.17647059559822074,
			0.5882353186607361,
			1.0],
			"metallicFactor":1.0,
			"roughnessFactor":1.0
		},
		"emissiveFactor":[0.0,
		0.0,
		0.0],
		"alphaMode":"OPAQUE",
		"doubleSided":false,
		"name":"Mat3d66-10278655-44-50299"
	},
	{
		"pbrMetallicRoughness":{
			"baseColorFactor":[0.5882353186607361,
			0.5882353186607361,
			0.5882353186607361,
			1.0],
			"metallicFactor":0.0,
			"roughnessFactor":0.9000000085991328
		},
		"emissiveFactor":[0.0,
		0.0,
		0.0],
		"alphaMode":"OPAQUE",
		"doubleSided":false,
		"name":"Mat3d66-10278655-72-21979"
	}],
	"meshes":[{
		"name":"rail",
		"primitives":[{
			"attributes":{
				"POSITION":1,
				"NORMAL":2,
				"TEXCOORD_0":3
			},
			"indices":0,
			"material":0
		}]
	},
	{
		"name":"stair",
		"primitives":[{
			"attributes":{
				"POSITION":5,
				"NORMAL":6,
				"TEXCOORD_0":7
			},
			"indices":4,
			"material":1
		}]
	},
	{
		"name":"111",
		"primitives":[{
			"attributes":{
				"POSITION":9,
				"NORMAL":10,
				"TEXCOORD_0":11
			},
			"indices":8,
			"material":2
		}]
	},
	{
		"name":"rr",
		"primitives":[{
			"attributes":{
				"POSITION":13,
				"NORMAL":14,
				"TEXCOORD_0":15
			},
			"indices":12,
			"material":3
		}]
	},
	{
		"name":"wall-材质",
		"primitives":[{
			"attributes":{
				"POSITION":17,
				"NORMAL":18,
				"TEXCOORD_0":19
			},
			"indices":16,
			"material":4
		}]
	},
	{
		"name":"wall-Mat3d66-10278655-42-18108",
		"primitives":[{
			"attributes":{
				"POSITION":21,
				"NORMAL":22,
				"TEXCOORD_0":23
			},
			"indices":20,
			"material":5
		}]
	},
	{
		"name":"Obj3d66_10278655_2373_288",
		"primitives":[{
			"attributes":{
				"POSITION":25,
				"NORMAL":26,
				"TEXCOORD_0":27
			},
			"indices":24,
			"material":6
		}]
	},
	{
		"name":"doorFrame",
		"primitives":[{
			"attributes":{
				"POSITION":29,
				"NORMAL":30,
				"TEXCOORD_0":31
			},
			"indices":28,
			"material":7
		}]
	}],
	"accessors":[{
		"bufferView":0,
		"type":"SCALAR",
		"componentType":5123,
		"count":35676,
		"byteOffset":0,
		"min":[0],
		"max":[10032]
	},
	{
		"bufferView":1,
		"type":"VEC3",
		"componentType":5126,
		"count":10033,
		"byteOffset":0,
		"min":[-553.1786499023438,
		-182.28176879882813,
		-1.0000001192092896],
		"max":[553.1786499023438,
		191.33984375,
		91.0]
	},
	{
		"bufferView":1,
		"type":"VEC3",
		"componentType":5126,
		"count":10033,
		"byteOffset":12,
		"min":[-1.0,
		-1.0,
		-1.0],
		"max":[1.0,
		1.0,
		1.0]
	},
	{
		"bufferView":1,
		"type":"VEC2",
		"componentType":5126,
		"count":10033,
		"byteOffset":24,
		"min":[0.0,
		0.0],
		"max":[1.0,
		1.0]
	},
	{
		"bufferView":2,
		"type":"SCALAR",
		"componentType":5123,
		"count":5616,
		"byteOffset":0,
		"min":[0],
		"max":[3583]
	},
	{
		"bufferView":3,
		"type":"VEC3",
		"componentType":5126,
		"count":3584,
		"byteOffset":0,
		"min":[-35.03932189941406,
		-59.182857513427737,
		-87.68798828125],
		"max":[24.01578712463379,
		58.927242279052737,
		118.89656066894531]
	},
	{
		"bufferView":3,
		"type":"VEC3",
		"componentType":5126,
		"count":3584,
		"byteOffset":12,
		"min":[-1.0,
		-1.0,
		-1.0],
		"max":[1.0,
		1.0,
		1.0]
	},
	{
		"bufferView":3,
		"type":"VEC2",
		"componentType":5126,
		"count":3584,
		"byteOffset":24,
		"min":[-535.0196533203125,
		-3183.54736328125],
		"max":[4099.490234375,
		965.5699462890625]
	},
	{
		"bufferView":4,
		"type":"SCALAR",
		"componentType":5123,
		"count":12480,
		"byteOffset":0,
		"min":[0],
		"max":[6929]
	},
	{
		"bufferView":5,
		"type":"VEC3",
		"componentType":5126,
		"count":6930,
		"byteOffset":0,
		"min":[-578.838623046875,
		-151.9644317626953,
		-1454.606689453125],
		"max":[578.838623046875,
		153.8937225341797,
		1454.84423828125]
	},
	{
		"bufferView":5,
		"type":"VEC3",
		"componentType":5126,
		"count":6930,
		"byteOffset":12,
		"min":[-1.0,
		-0.021230503916740419,
		-0.9990085363388062],
		"max":[1.0,
		0.9570845365524292,
		0.9850742220878601]
	},
	{
		"bufferView":5,
		"type":"VEC2",
		"componentType":5126,
		"count":6930,
		"byteOffset":24,
		"min":[0.0,
		0.0],
		"max":[1.0,
		1.0]
	},
	{
		"bufferView":6,
		"type":"SCALAR",
		"componentType":5123,
		"count":540,
		"byteOffset":0,
		"min":[0],
		"max":[323]
	},
	{
		"bufferView":7,
		"type":"VEC3",
		"componentType":5126,
		"count":324,
		"byteOffset":0,
		"min":[-550.1727294921875,
		-1465.2044677734376,
		670.6539306640625],
		"max":[590.1250610351563,
		715.0927734375,
		712.38671875]
	},
	{
		"bufferView":7,
		"type":"VEC3",
		"componentType":5126,
		"count":324,
		"byteOffset":12,
		"min":[-0.9984533190727234,
		-1.0,
		-0.9984532594680786],
		"max":[0.9984533190727234,
		1.0,
		0.9984532594680786]
	},
	{
		"bufferView":7,
		"type":"VEC2",
		"componentType":5126,
		"count":324,
		"byteOffset":24,
		"min":[0.0,
		0.0],
		"max":[1.0,
		1.0]
	},
	{
		"bufferView":8,
		"type":"SCALAR",
		"componentType":5123,
		"count":270,
		"byteOffset":0,
		"min":[0],
		"max":[143]
	},
	{
		"bufferView":9,
		"type":"VEC3",
		"componentType":5126,
		"count":144,
		"byteOffset":0,
		"min":[-560.1982421875,
		315.4554748535156,
		-1950.9302978515626],
		"max":[580.1744384765625,
		611.1694946289063,
		1151.2552490234376]
	},
	{
		"bufferView":9,
		"type":"VEC3",
		"componentType":5126,
		"count":144,
		"byteOffset":12,
		"min":[-1.0,
		-0.006312500219792128,
		-0.9999688267707825],
		"max":[1.0,
		1.0,
		0.9999688267707825]
	},
	{
		"bufferView":9,
		"type":"VEC2",
		"componentType":5126,
		"count":144,
		"byteOffset":24,
		"min":[0.0,
		0.0],
		"max":[1.0,
		1.0]
	},
	{
		"bufferView":10,
		"type":"SCALAR",
		"componentType":5123,
		"count":438,
		"byteOffset":0,
		"min":[0],
		"max":[312]
	},
	{
		"bufferView":11,
		"type":"VEC3",
		"componentType":5126,
		"count":313,
		"byteOffset":0,
		"min":[-560.1982421875,
		-105.15185546875,
		-1950.9302978515626],
		"max":[580.1744384765625,
		588.0795288085938,
		1151.2552490234376]
	},
	{
		"bufferView":11,
		"type":"VEC3",
		"componentType":5126,
		"count":313,
		"byteOffset":12,
		"min":[-1.0,
		-1.0,
		-1.0],
		"max":[1.0,
		0.0,
		1.0]
	},
	{
		"bufferView":11,
		"type":"VEC2",
		"componentType":5126,
		"count":313,
		"byteOffset":24,
		"min":[0.0,
		0.0],
		"max":[1.0,
		1.0]
	},
	{
		"bufferView":12,
		"type":"SCALAR",
		"componentType":5123,
		"count":96,
		"byteOffset":0,
		"min":[0],
		"max":[79]
	},
	{
		"bufferView":13,
		"type":"VEC3",
		"componentType":5126,
		"count":80,
		"byteOffset":0,
		"min":[-573.236328125,
		-1558.775390625,
		0.0],
		"max":[573.236328125,
		1558.775390625,
		2.5]
	},
	{
		"bufferView":13,
		"type":"VEC3",
		"componentType":5126,
		"count":80,
		"byteOffset":12,
		"min":[-1.0,
		-1.0,
		-1.0],
		"max":[1.0,
		1.0,
		1.0]
	},
	{
		"bufferView":13,
		"type":"VEC2",
		"componentType":5126,
		"count":80,
		"byteOffset":24,
		"min":[0.0,
		0.0],
		"max":[1.0,
		1.0]
	},
	{
		"bufferView":14,
		"type":"SCALAR",
		"componentType":5123,
		"count":396,
		"byteOffset":0,
		"min":[0],
		"max":[359]
	},
	{
		"bufferView":15,
		"type":"VEC3",
		"componentType":5126,
		"count":360,
		"byteOffset":0,
		"min":[-0.000008584374882047996,
		-105.15185546875,
		-1409.6239013671876],
		"max":[2.5000083446502687,
		184.7519073486328,
		1409.6239013671876]
	},
	{
		"bufferView":15,
		"type":"VEC3",
		"componentType":5126,
		"count":360,
		"byteOffset":12,
		"min":[-1.0,
		-1.0,
		-1.0],
		"max":[1.0,
		1.0,
		1.0]
	},
	{
		"bufferView":15,
		"type":"VEC2",
		"componentType":5126,
		"count":360,
		"byteOffset":24,
		"min":[0.0,
		0.0],
		"max":[1.0,
		1.0]
	}],
	"bufferViews":[{
		"buffer":0,
		"byteOffset":0,
		"byteLength":71352,
		"target":34963
	},
	{
		"buffer":0,
		"byteOffset":71352,
		"byteLength":321056,
		"target":34962,
		"byteStride":32
	},
	{
		"buffer":1,
		"byteOffset":0,
		"byteLength":11232,
		"target":34963
	},
	{
		"buffer":1,
		"byteOffset":11232,
		"byteLength":114688,
		"target":34962,
		"byteStride":32
	},
	{
		"buffer":2,
		"byteOffset":0,
		"byteLength":24960,
		"target":34963
	},
	{
		"buffer":2,
		"byteOffset":24960,
		"byteLength":221760,
		"target":34962,
		"byteStride":32
	},
	{
		"buffer":3,
		"byteOffset":0,
		"byteLength":1080,
		"target":34963
	},
	{
		"buffer":3,
		"byteOffset":1080,
		"byteLength":10368,
		"target":34962,
		"byteStride":32
	},
	{
		"buffer":4,
		"byteOffset":0,
		"byteLength":540,
		"target":34963
	},
	{
		"buffer":4,
		"byteOffset":540,
		"byteLength":4608,
		"target":34962,
		"byteStride":32
	},
	{
		"buffer":5,
		"byteOffset":0,
		"byteLength":876,
		"target":34963
	},
	{
		"buffer":5,
		"byteOffset":876,
		"byteLength":10016,
		"target":34962,
		"byteStride":32
	},
	{
		"buffer":6,
		"byteOffset":0,
		"byteLength":192,
		"target":34963
	},
	{
		"buffer":6,
		"byteOffset":192,
		"byteLength":2560,
		"target":34962,
		"byteStride":32
	},
	{
		"buffer":7,
		"byteOffset":0,
		"byteLength":792,
		"target":34963
	},
	{
		"buffer":7,
		"byteOffset":792,
		"byteLength":11520,
		"target":34962,
		"byteStride":32
	}],
	"buffers":[{
		"uri":"data:application/octet-stream;base64,",
		"byteLength":392408
	},
	{
		"uri":"data:application/octet-stream;base64,",
		"byteLength":125920
	},
	{
		"uri":"data:application/octet-stream;base64,",
		"byteLength":246720
	},
	{
		"uri":"data:application/octet-stream;base64,",
		"byteLength":11448
	},
	{
		"uri":"data:application/octet-stream;base64,",
		"byteLength":5148
	},
	{
		"uri":"data:application/octet-stream;base64,",
		"byteLength":10892
	},
	{
		"uri":"data:application/octet-stream;base64,",
		"byteLength":2752
	},
	{
		"uri":"data:application/octet-stream;base64,",
		"byteLength":12312
	}]
}