{
	"asset":{
		"version":"2.0",
		"generator":"Created using the official Cinema 4D glTF Exporter 1.000x284978"
	},
	"scenes":[{
		"nodes":[0]
	}],
	"nodes":[{
		"name":"Hosue03",
		"children":[1,
		2,
		3,
		4,
		7]
	},
	{
		"name":"rr",
		"translation":[94.87577056884766,
		201.47698974609376,
		324.194580078125],
		"rotation":[0.7071067690849304,
		0.0,
		0.0,
		-0.7071067690849304],
		"scale":[1.0,
		1.0,
		1.0],
		"mesh":0
	},
	{
		"name":"glass",
		"translation":[95.50076293945313,
		-67.2004165649414,
		323.6394348144531],
		"rotation":[0.0,
		0.0,
		0.0,
		-1.0],
		"scale":[1.0,
		1.0,
		1.0],
		"mesh":1
	},
	{
		"name":"Door",
		"translation":[-245.75357055664063,
		-73.5379867553711,
		-1295.73681640625],
		"rotation":[-6.123234262925839e-17,
		0.0,
		0.0,
		-1.0],
		"scale":[1.0,
		1.0,
		1.0],
		"mesh":2
	},
	{
		"name":"wall",
		"translation":[-40.123722076416019,
		6.4618377685546879,
		324.2633361816406],
		"rotation":[-6.123234262925839e-17,
		0.0,
		0.0,
		-1.0],
		"scale":[1.0,
		1.0,
		1.0],
		"children":[5,
		6]
	},
	{
		"name":"wall-材质",
		"mesh":3
	},
	{
		"name":"wall-材质.1",
		"mesh":4
	},
	{
		"name":"win",
		"translation":[95.50076293945313,
		-67.2004165649414,
		323.6394348144531],
		"rotation":[0.0,
		0.0,
		0.0,
		-1.0],
		"scale":[1.0,
		1.0,
		1.0],
		"mesh":5
	}],
	"materials":[{
		"pbrMetallicRoughness":{
			"baseColorFactor":[0.8,
			0.8,
			0.8,
			1.0],
			"metallicFactor":0.0,
			"roughnessFactor":0.5
		},
		"emissiveFactor":[0.0,
		0.0,
		0.0],
		"alphaMode":"OPAQUE",
		"doubleSided":false,
		"name":"Mat3d66-10278655-3-31610"
	},
	{
		"pbrMetallicRoughness":{
			"baseColorFactor":[0.1137254983186722,
			0.12941177189350129,
			0.16862745583057404,
			0.2999999523162842],
			"metallicFactor":0.0,
			"roughnessFactor":0.5
		},
		"emissiveFactor":[0.0,
		0.0,
		0.0],
		"alphaMode":"BLEND",
		"doubleSided":false,
		"name":"glass"
	},
	{
		"pbrMetallicRoughness":{
			"baseColorFactor":[0.5477333333333334,
			0.8,
			0.45600000000000009,
			1.0],
			"metallicFactor":0.0,
			"roughnessFactor":0.5
		},
		"emissiveFactor":[0.0,
		0.0,
		0.0],
		"alphaMode":"OPAQUE",
		"doubleSided":false,
		"name":"材质"
	},
	{
		"pbrMetallicRoughness":{
			"baseColorFactor":[0.8,
			0.6509333333333335,
			0.45600000000000009,
			1.0],
			"metallicFactor":0.0,
			"roughnessFactor":0.5
		},
		"emissiveFactor":[0.0,
		0.0,
		0.0],
		"alphaMode":"OPAQUE",
		"doubleSided":false,
		"name":"材质"
	},
	{
		"pbrMetallicRoughness":{
			"baseColorFactor":[0.06,
			0.06,
			0.06,
			1.0],
			"metallicFactor":0.0,
			"roughnessFactor":0.5
		},
		"emissiveFactor":[0.0,
		0.0,
		0.0],
		"alphaMode":"OPAQUE",
		"doubleSided":false,
		"name":"材质.1"
	},
	{
		"pbrMetallicRoughness":{
			"baseColorFactor":[0.8,
			0.45600000000000009,
			0.6222666666666665,
			1.0],
			"metallicFactor":0.0,
			"roughnessFactor":0.5
		},
		"emissiveFactor":[0.0,
		0.0,
		0.0],
		"alphaMode":"OPAQUE",
		"doubleSided":false,
		"name":"材质"
	}],
	"meshes":[{
		"name":"rr",
		"primitives":[{
			"attributes":{
				"POSITION":1,
				"NORMAL":2,
				"TEXCOORD_0":3
			},
			"indices":0,
			"material":0
		}]
	},
	{
		"name":"glass",
		"primitives":[{
			"attributes":{
				"POSITION":5,
				"NORMAL":6,
				"TEXCOORD_0":7
			},
			"indices":4,
			"material":1
		}]
	},
	{
		"name":"Door",
		"primitives":[{
			"attributes":{
				"POSITION":9,
				"NORMAL":10,
				"TEXCOORD_0":11
			},
			"indices":8,
			"material":2
		}]
	},
	{
		"name":"wall-材质",
		"primitives":[{
			"attributes":{
				"POSITION":13,
				"NORMAL":14,
				"TEXCOORD_0":15
			},
			"indices":12,
			"material":3
		}]
	},
	{
		"name":"wall-材质.1",
		"primitives":[{
			"attributes":{
				"POSITION":17,
				"NORMAL":18,
				"TEXCOORD_0":19
			},
			"indices":16,
			"material":4
		}]
	},
	{
		"name":"win",
		"primitives":[{
			"attributes":{
				"POSITION":21,
				"NORMAL":22,
				"TEXCOORD_0":23
			},
			"indices":20,
			"material":5
		}]
	}],
	"accessors":[{
		"bufferView":0,
		"type":"SCALAR",
		"componentType":5123,
		"count":36,
		"byteOffset":0,
		"min":[0],
		"max":[23]
	},
	{
		"bufferView":1,
		"type":"VEC3",
		"componentType":5126,
		"count":24,
		"byteOffset":0,
		"min":[-330.0,
		-2159.931396484375,
		-1.25],
		"max":[330.0,
		2159.931396484375,
		1.25]
	},
	{
		"bufferView":1,
		"type":"VEC3",
		"componentType":5126,
		"count":24,
		"byteOffset":12,
		"min":[-1.0,
		-1.0,
		-1.0],
		"max":[1.0,
		1.0,
		1.0]
	},
	{
		"bufferView":1,
		"type":"VEC2",
		"componentType":5126,
		"count":24,
		"byteOffset":24,
		"min":[0.0016667083837091923,
		0.0016667083837091923],
		"max":[0.9966915845870972,
		0.5330145359039307]
	},
	{
		"bufferView":2,
		"type":"SCALAR",
		"componentType":5123,
		"count":126,
		"byteOffset":0,
		"min":[0],
		"max":[83]
	},
	{
		"bufferView":3,
		"type":"VEC3",
		"componentType":5126,
		"count":84,
		"byteOffset":0,
		"min":[-343.1250305175781,
		-156.33786010742188,
		-2069.376220703125],
		"max":[343.1250305175781,
		156.33786010742188,
		2069.376220703125]
	},
	{
		"bufferView":3,
		"type":"VEC3",
		"componentType":5126,
		"count":84,
		"byteOffset":12,
		"min":[-1.0,
		-1.2935074865871258e-14,
		5.1908855880355989e-8],
		"max":[1.0,
		1.2715656794171083e-7,
		4.0690238733986919e-7]
	},
	{
		"bufferView":3,
		"type":"VEC2",
		"componentType":5126,
		"count":84,
		"byteOffset":24,
		"min":[-7.583334922790527,
		0.4616663455963135],
		"max":[12.083337783813477,
		1.4666662216186524]
	},
	{
		"bufferView":4,
		"type":"SCALAR",
		"componentType":5123,
		"count":108,
		"byteOffset":0,
		"min":[0],
		"max":[71]
	},
	{
		"bufferView":5,
		"type":"VEC3",
		"componentType":5126,
		"count":72,
		"byteOffset":0,
		"min":[-10.630544662475586,
		-150.00010681152345,
		-494.9996337890625],
		"max":[10.630544662475586,
		150.00010681152345,
		494.9996337890625]
	},
	{
		"bufferView":5,
		"type":"VEC3",
		"componentType":5126,
		"count":72,
		"byteOffset":12,
		"min":[-1.0,
		-1.0,
		-1.0],
		"max":[1.0,
		1.0,
		1.0]
	},
	{
		"bufferView":5,
		"type":"VEC2",
		"componentType":5126,
		"count":72,
		"byteOffset":24,
		"min":[0.0016703467117622495,
		0.0016703465953469277],
		"max":[0.9950248599052429,
		0.7394676208496094]
	},
	{
		"bufferView":6,
		"type":"SCALAR",
		"componentType":5123,
		"count":2004,
		"byteOffset":0,
		"min":[0],
		"max":[1085]
	},
	{
		"bufferView":7,
		"type":"VEC3",
		"componentType":5126,
		"count":1086,
		"byteOffset":0,
		"min":[-495.00067138671877,
		-260.0001220703125,
		-2190.000244140625],
		"max":[494.9996643066406,
		260.0002136230469,
		2190.000244140625]
	},
	{
		"bufferView":7,
		"type":"VEC3",
		"componentType":5126,
		"count":1086,
		"byteOffset":12,
		"min":[-1.0,
		-1.0,
		-1.0],
		"max":[1.0,
		1.0,
		1.0]
	},
	{
		"bufferView":7,
		"type":"VEC2",
		"componentType":5126,
		"count":1086,
		"byteOffset":24,
		"min":[-11.483338356018067,
		-11.48333740234375],
		"max":[12.483338356018067,
		3.116663932800293]
	},
	{
		"bufferView":8,
		"type":"SCALAR",
		"componentType":5123,
		"count":432,
		"byteOffset":0,
		"min":[0],
		"max":[287]
	},
	{
		"bufferView":9,
		"type":"VEC3",
		"componentType":5126,
		"count":288,
		"byteOffset":0,
		"min":[-225.00086975097657,
		-260.0002136230469,
		-2190.000244140625],
		"max":[495.00067138671877,
		-109.99984741210938,
		2190.000244140625]
	},
	{
		"bufferView":9,
		"type":"VEC3",
		"componentType":5126,
		"count":288,
		"byteOffset":12,
		"min":[-1.0,
		-1.0,
		-1.0],
		"max":[1.0,
		1.0,
		1.0]
	},
	{
		"bufferView":9,
		"type":"VEC2",
		"componentType":5126,
		"count":288,
		"byteOffset":24,
		"min":[-11.483338356018067,
		-11.48333740234375],
		"max":[12.483338356018067,
		3.1166634559631349]
	},
	{
		"bufferView":10,
		"type":"SCALAR",
		"componentType":5123,
		"count":3528,
		"byteOffset":0,
		"min":[0],
		"max":[2015]
	},
	{
		"bufferView":11,
		"type":"VEC3",
		"componentType":5126,
		"count":2016,
		"byteOffset":0,
		"min":[-348.1250305175781,
		-156.33786010742188,
		-2069.376220703125],
		"max":[348.1250305175781,
		156.33786010742188,
		2069.376220703125]
	},
	{
		"bufferView":11,
		"type":"VEC3",
		"componentType":5126,
		"count":2016,
		"byteOffset":12,
		"min":[-1.0,
		-1.0,
		-1.0],
		"max":[1.0,
		1.0,
		1.0]
	},
	{
		"bufferView":11,
		"type":"VEC2",
		"componentType":5126,
		"count":2016,
		"byteOffset":24,
		"min":[-11.083337783813477,
		-11.083337783813477],
		"max":[12.083337783813477,
		2.7125039100646974]
	}],
	"bufferViews":[{
		"buffer":0,
		"byteOffset":0,
		"byteLength":72,
		"target":34963
	},
	{
		"buffer":0,
		"byteOffset":72,
		"byteLength":768,
		"target":34962,
		"byteStride":32
	},
	{
		"buffer":1,
		"byteOffset":0,
		"byteLength":252,
		"target":34963
	},
	{
		"buffer":1,
		"byteOffset":252,
		"byteLength":2688,
		"target":34962,
		"byteStride":32
	},
	{
		"buffer":2,
		"byteOffset":0,
		"byteLength":216,
		"target":34963
	},
	{
		"buffer":2,
		"byteOffset":216,
		"byteLength":2304,
		"target":34962,
		"byteStride":32
	},
	{
		"buffer":3,
		"byteOffset":0,
		"byteLength":4008,
		"target":34963
	},
	{
		"buffer":3,
		"byteOffset":4008,
		"byteLength":34752,
		"target":34962,
		"byteStride":32
	},
	{
		"buffer":4,
		"byteOffset":0,
		"byteLength":864,
		"target":34963
	},
	{
		"buffer":4,
		"byteOffset":864,
		"byteLength":9216,
		"target":34962,
		"byteStride":32
	},
	{
		"buffer":5,
		"byteOffset":0,
		"byteLength":7056,
		"target":34963
	},
	{
		"buffer":5,
		"byteOffset":7056,
		"byteLength":64512,
		"target":34962,
		"byteStride":32
	}],
	"buffers":[{
		"uri":"data:application/octet-stream;base64,",
		"byteLength":840
	},
	{
		"uri":"data:application/octet-stream;base64,",
		"byteLength":2940
	},
	{
		"uri":"data:application/octet-stream;base64,",
		"byteLength":2520
	},
	{
		"uri":"data:application/octet-stream;base64,",
		"byteLength":38760
	},
	{
		"uri":"data:application/octet-stream;base64,",
		"byteLength":10080
	},
	{
		"uri":"data:application/octet-stream;base64,",
		"byteLength":71568
	}]
}