{
	"asset":{
		"version":"2.0",
		"generator":"Created using the official Cinema 4D glTF Exporter 1.000x284978"
	},
	"scenes":[{
		"nodes":[0]
	}],
	"nodes":[{
		"name":"house06",
		"translation":[0.0,
		371.7666320800781,
		0.0],
		"rotation":[0.0,
		0.0,
		0.0,
		-1.0],
		"scale":[1.0,
		1.0,
		1.0],
		"children":[1,
		2]
	},
	{
		"name":"wall",
		"mesh":0
	},
	{
		"name":"roof",
		"mesh":1
	}],
	"materials":[{
		"pbrMetallicRoughness":{
			"baseColorFactor":[0.8,
			0.33600000000000015,
			0.33600000000000015,
			1.0],
			"metallicFactor":0.0,
			"roughnessFactor":0.5
		},
		"emissiveFactor":[0.0,
		0.0,
		0.0],
		"alphaMode":"OPAQUE",
		"doubleSided":false,
		"name":"材质.2"
	},
	{
		"pbrMetallicRoughness":{
			"baseColorFactor":[0.8,
			0.8,
			0.8,
			1.0],
			"metallicFactor":0.0,
			"roughnessFactor":0.5
		},
		"emissiveFactor":[0.0,
		0.0,
		0.0],
		"alphaMode":"OPAQUE",
		"doubleSided":false,
		"name":"材质.1"
	}],
	"meshes":[{
		"name":"wall",
		"primitives":[{
			"attributes":{
				"POSITION":1,
				"NORMAL":2,
				"TEXCOORD_0":3
			},
			"indices":0,
			"material":0
		}]
	},
	{
		"name":"roof",
		"primitives":[{
			"attributes":{
				"POSITION":5,
				"NORMAL":6,
				"TEXCOORD_0":7
			},
			"indices":4,
			"material":1
		}]
	}],
	"accessors":[{
		"bufferView":0,
		"type":"SCALAR",
		"componentType":5123,
		"count":972,
		"byteOffset":0,
		"min":[0],
		"max":[311]
	},
	{
		"bufferView":1,
		"type":"VEC3",
		"componentType":5126,
		"count":312,
		"byteOffset":0,
		"min":[-1144.23681640625,
		-404.7666320800781,
		-656.302734375],
		"max":[1144.23681640625,
		596.6671142578125,
		644.70849609375]
	},
	{
		"bufferView":1,
		"type":"VEC3",
		"componentType":5126,
		"count":312,
		"byteOffset":12,
		"min":[-1.0,
		-1.0,
		-1.0],
		"max":[1.0,
		1.0,
		1.0]
	},
	{
		"bufferView":1,
		"type":"VEC2",
		"componentType":5126,
		"count":312,
		"byteOffset":24,
		"min":[0.0016667083837091923,
		0.0016667083837091923],
		"max":[0.9966915845870972,
		0.8485909700393677]
	},
	{
		"bufferView":2,
		"type":"SCALAR",
		"componentType":5123,
		"count":1248,
		"byteOffset":0,
		"min":[0],
		"max":[587]
	},
	{
		"bufferView":3,
		"type":"VEC3",
		"componentType":5126,
		"count":588,
		"byteOffset":0,
		"min":[-1175.184326171875,
		332.6523132324219,
		-677.6878051757813],
		"max":[1175.184326171875,
		634.9752197265625,
		681.0232543945313]
	},
	{
		"bufferView":3,
		"type":"VEC3",
		"componentType":5126,
		"count":588,
		"byteOffset":12,
		"min":[-1.0,
		-0.9306967854499817,
		-1.0],
		"max":[1.0,
		0.9306967854499817,
		1.0]
	},
	{
		"bufferView":3,
		"type":"VEC2",
		"componentType":5126,
		"count":588,
		"byteOffset":24,
		"min":[0.0016720525454729796,
		0.0016720525454729796],
		"max":[0.896439254283905,
		0.9950248003005981]
	}],
	"bufferViews":[{
		"buffer":0,
		"byteOffset":0,
		"byteLength":1944,
		"target":34963
	},
	{
		"buffer":0,
		"byteOffset":1944,
		"byteLength":9984,
		"target":34962,
		"byteStride":32
	},
	{
		"buffer":1,
		"byteOffset":0,
		"byteLength":2496,
		"target":34963
	},
	{
		"buffer":1,
		"byteOffset":2496,
		"byteLength":18816,
		"target":34962,
		"byteStride":32
	}],
	"buffers":[{
		"uri":"data:application/octet-stream;base64,",
		"byteLength":11928
	},
	{
		"uri":"data:application/octet-stream;base64,",
		"byteLength":21312
	}]
}