{
	"asset":{
		"version":"2.0",
		"generator":"Created using the official Cinema 4D glTF Exporter 1.000x284978"
	},
	"scenes":[{
		"nodes":[0]
	}],
	"nodes":[{
		"name":"PowerA.1",
		"translation":[952.5448608398438,
		315.1340637207031,
		1638.98828125],
		"rotation":[0.7071067690849304,
		0.0,
		0.0,
		-0.7071067690849304],
		"scale":[1.0,
		1.0,
		1.0],
		"children":[1,
		7,
		11,
		14,
		15]
	},
	{
		"name":"pole",
		"translation":[300.0201721191406,
		573.7914428710938,
		175.1483154296875],
		"rotation":[-0.7071067690849304,
		0.0,
		0.0,
		-0.7071067690849304],
		"scale":[1.0,
		1.0,
		1.0],
		"children":[2,
		3,
		4,
		5,
		6]
	},
	{
		"name":"pole",
		"mesh":0
	},
	{
		"name":"pole-metal",
		"mesh":1
	},
	{
		"name":"pole-metal",
		"mesh":2
	},
	{
		"name":"pole-chian2",
		"mesh":3
	},
	{
		"name":"pole-metal",
		"mesh":4
	},
	{
		"name":"col",
		"translation":[-49.03218460083008,
		-181.36822509765626,
		110.02108764648438],
		"rotation":[-0.7071067690849304,
		0.0,
		0.0,
		-0.7071067690849304],
		"scale":[1.0,
		1.0,
		1.0],
		"children":[8,
		9,
		10]
	},
	{
		"name":"col-Cu",
		"mesh":5
	},
	{
		"name":"col-chian2",
		"mesh":6
	},
	{
		"name":"col-metal",
		"mesh":7
	},
	{
		"name":"圆柱体",
		"translation":[-46.26287841796875,
		-129.58056640625,
		183.61007690429688],
		"rotation":[4.329780301713277e-17,
		0.7071067690849304,
		0.7071067690849304,
		-4.329780301713277e-17],
		"scale":[1.0,
		1.0,
		1.0],
		"children":[12,
		13]
	},
	{
		"name":"圆柱体-chian2",
		"mesh":8
	},
	{
		"name":"圆柱体-metal",
		"mesh":9
	},
	{
		"name":"boxOnBox01.1",
		"translation":[-68.64723205566406,
		-119.1965103149414,
		92.99300384521485],
		"rotation":[-0.7071067690849304,
		0.0,
		0.0,
		-0.7071067690849304],
		"scale":[1.0,
		1.0,
		1.0],
		"mesh":10
	},
	{
		"name":"powerA",
		"translation":[-78.59498596191406,
		-144.4658660888672,
		-275.0666198730469],
		"rotation":[4.329780301713277e-17,
		0.7071067690849304,
		0.7071067690849304,
		-4.329780301713277e-17],
		"scale":[1.0,
		1.0,
		1.0],
		"mesh":11
	}],
	"materials":[{
		"pbrMetallicRoughness":{
			"baseColorFactor":[0.744,
			0.8,
			0.6880000000000001,
			1.0],
			"metallicFactor":0.0,
			"roughnessFactor":0.5
		},
		"emissiveFactor":[0.0,
		0.0,
		0.0],
		"alphaMode":"OPAQUE",
		"doubleSided":false,
		"name":"metal"
	},
	{
		"pbrMetallicRoughness":{
			"baseColorFactor":[0.21,
			0.17178,
			0.1281,
			1.0],
			"metallicFactor":0.0,
			"roughnessFactor":0.5
		},
		"emissiveFactor":[0.0,
		0.0,
		0.0],
		"alphaMode":"OPAQUE",
		"doubleSided":false,
		"name":"chian2"
	},
	{
		"pbrMetallicRoughness":{
			"baseColorFactor":[0.8,
			0.48266666666666666,
			0.12000000000000003,
			1.0],
			"metallicFactor":0.0,
			"roughnessFactor":0.5
		},
		"emissiveFactor":[0.0,
		0.0,
		0.0],
		"alphaMode":"OPAQUE",
		"doubleSided":false,
		"name":"Cu"
	}],
	"meshes":[{
		"name":"pole",
		"primitives":[{
			"attributes":{
				"POSITION":1,
				"NORMAL":2,
				"TEXCOORD_0":3
			},
			"indices":0
		}]
	},
	{
		"name":"pole-metal",
		"primitives":[{
			"attributes":{
				"POSITION":5,
				"NORMAL":6,
				"TEXCOORD_0":7
			},
			"indices":4,
			"material":0
		}]
	},
	{
		"name":"pole-metal",
		"primitives":[{
			"attributes":{
				"POSITION":9,
				"NORMAL":10,
				"TEXCOORD_0":11
			},
			"indices":8,
			"material":0
		}]
	},
	{
		"name":"pole-chian2",
		"primitives":[{
			"attributes":{
				"POSITION":13,
				"NORMAL":14,
				"TEXCOORD_0":15
			},
			"indices":12,
			"material":1
		}]
	},
	{
		"name":"pole-metal",
		"primitives":[{
			"attributes":{
				"POSITION":17,
				"NORMAL":18,
				"TEXCOORD_0":19
			},
			"indices":16,
			"material":0
		}]
	},
	{
		"name":"col-Cu",
		"primitives":[{
			"attributes":{
				"POSITION":21,
				"NORMAL":22,
				"TEXCOORD_0":23
			},
			"indices":20,
			"material":2
		}]
	},
	{
		"name":"col-chian2",
		"primitives":[{
			"attributes":{
				"POSITION":25,
				"NORMAL":26,
				"TEXCOORD_0":27
			},
			"indices":24,
			"material":1
		}]
	},
	{
		"name":"col-metal",
		"primitives":[{
			"attributes":{
				"POSITION":29,
				"NORMAL":30,
				"TEXCOORD_0":31
			},
			"indices":28,
			"material":0
		}]
	},
	{
		"name":"圆柱体-chian2",
		"primitives":[{
			"attributes":{
				"POSITION":33,
				"NORMAL":34,
				"TEXCOORD_0":35
			},
			"indices":32,
			"material":1
		}]
	},
	{
		"name":"圆柱体-metal",
		"primitives":[{
			"attributes":{
				"POSITION":37,
				"NORMAL":38,
				"TEXCOORD_0":39
			},
			"indices":36,
			"material":0
		}]
	},
	{
		"name":"boxOnBox01.1",
		"primitives":[{
			"attributes":{
				"POSITION":41,
				"NORMAL":42,
				"TEXCOORD_0":43
			},
			"indices":40,
			"material":0
		}]
	},
	{
		"name":"powerA",
		"primitives":[{
			"attributes":{
				"POSITION":45,
				"NORMAL":46,
				"TEXCOORD_0":47
			},
			"indices":44,
			"material":0
		}]
	}],
	"accessors":[{
		"bufferView":0,
		"type":"SCALAR",
		"componentType":5123,
		"count":768,
		"byteOffset":0,
		"min":[0],
		"max":[257]
	},
	{
		"bufferView":1,
		"type":"VEC3",
		"componentType":5126,
		"count":258,
		"byteOffset":0,
		"min":[-125.27289581298828,
		16.241588592529298,
		-8.237585067749024],
		"max":[-107.4732894897461,
		203.905029296875,
		9.562023162841797]
	},
	{
		"bufferView":1,
		"type":"VEC3",
		"componentType":5126,
		"count":258,
		"byteOffset":12,
		"min":[-1.0,
		-1.0,
		-1.0],
		"max":[1.0,
		1.0,
		1.0]
	},
	{
		"bufferView":1,
		"type":"VEC2",
		"componentType":5126,
		"count":258,
		"byteOffset":24,
		"min":[0.10873344540596008,
		0.10873344540596008],
		"max":[0.8912665843963623,
		0.8912665843963623]
	},
	{
		"bufferView":2,
		"type":"SCALAR",
		"componentType":5123,
		"count":480,
		"byteOffset":0,
		"min":[0],
		"max":[118]
	},
	{
		"bufferView":3,
		"type":"VEC3",
		"componentType":5126,
		"count":119,
		"byteOffset":0,
		"min":[81.4177474975586,
		11.39609432220459,
		-3.372065782546997],
		"max":[88.16188049316406,
		165.2364501953125,
		3.372065782546997]
	},
	{
		"bufferView":3,
		"type":"VEC3",
		"componentType":5126,
		"count":119,
		"byteOffset":12,
		"min":[-0.9999688267707825,
		-1.0,
		-1.0],
		"max":[0.9999688267707825,
		1.0,
		1.0]
	},
	{
		"bufferView":3,
		"type":"VEC2",
		"componentType":5126,
		"count":119,
		"byteOffset":24,
		"min":[0.0,
		0.0],
		"max":[1.0,
		1.0]
	},
	{
		"bufferView":4,
		"type":"SCALAR",
		"componentType":5123,
		"count":1152,
		"byteOffset":0,
		"min":[0],
		"max":[387]
	},
	{
		"bufferView":5,
		"type":"VEC3",
		"componentType":5126,
		"count":388,
		"byteOffset":0,
		"min":[-187.7417449951172,
		-23.408103942871095,
		-8.23758602142334],
		"max":[-26.791765213012697,
		157.73995971679688,
		9.562023162841797]
	},
	{
		"bufferView":5,
		"type":"VEC3",
		"componentType":5126,
		"count":388,
		"byteOffset":12,
		"min":[-1.0,
		-1.0,
		-1.0],
		"max":[1.0,
		1.0,
		1.0]
	},
	{
		"bufferView":5,
		"type":"VEC2",
		"componentType":5126,
		"count":388,
		"byteOffset":24,
		"min":[0.10873344540596008,
		0.10873344540596008],
		"max":[0.8912665843963623,
		0.8912665843963623]
	},
	{
		"bufferView":6,
		"type":"SCALAR",
		"componentType":5123,
		"count":14400,
		"byteOffset":0,
		"min":[0],
		"max":[5100]
	},
	{
		"bufferView":7,
		"type":"VEC3",
		"componentType":5126,
		"count":5101,
		"byteOffset":0,
		"min":[-185.58531188964845,
		0.9466213583946228,
		-11.4060697555542],
		"max":[-24.048320770263673,
		182.21749877929688,
		12.730506896972657]
	},
	{
		"bufferView":7,
		"type":"VEC3",
		"componentType":5126,
		"count":5101,
		"byteOffset":12,
		"min":[-1.0,
		-1.0,
		-1.0],
		"max":[1.0,
		1.0,
		1.0]
	},
	{
		"bufferView":7,
		"type":"VEC2",
		"componentType":5126,
		"count":5101,
		"byteOffset":24,
		"min":[0.0,
		0.0],
		"max":[1.0,
		1.0]
	},
	{
		"bufferView":8,
		"type":"SCALAR",
		"componentType":5123,
		"count":6078,
		"byteOffset":0,
		"min":[0],
		"max":[1812]
	},
	{
		"bufferView":9,
		"type":"VEC3",
		"componentType":5126,
		"count":1813,
		"byteOffset":0,
		"min":[-203.81809997558595,
		-545.2389526367188,
		-26.87504005432129],
		"max":[114.40684509277344,
		225.0466766357422,
		28.621105194091798]
	},
	{
		"bufferView":9,
		"type":"VEC3",
		"componentType":5126,
		"count":1813,
		"byteOffset":12,
		"min":[-1.0,
		-1.0,
		-1.0],
		"max":[1.0,
		1.0,
		1.0]
	},
	{
		"bufferView":9,
		"type":"VEC2",
		"componentType":5126,
		"count":1813,
		"byteOffset":24,
		"min":[-0.1017501950263977,
		-1.4901161193847657e-8],
		"max":[1.131752610206604,
		1.0]
	},
	{
		"bufferView":10,
		"type":"SCALAR",
		"componentType":5123,
		"count":3744,
		"byteOffset":0,
		"min":[0],
		"max":[1471]
	},
	{
		"bufferView":11,
		"type":"VEC3",
		"componentType":5126,
		"count":1472,
		"byteOffset":0,
		"min":[-254.94052124023438,
		334.4135437011719,
		-449.036865234375],
		"max":[259.34124755859377,
		385.7769775390625,
		518.0219116210938]
	},
	{
		"bufferView":11,
		"type":"VEC3",
		"componentType":5126,
		"count":1472,
		"byteOffset":12,
		"min":[-0.9890313148498535,
		-0.9412500262260437,
		-0.9994375705718994],
		"max":[0.9890313148498535,
		0.9412500262260437,
		0.9994375705718994]
	},
	{
		"bufferView":11,
		"type":"VEC2",
		"componentType":5126,
		"count":1472,
		"byteOffset":24,
		"min":[0.0,
		0.0],
		"max":[1.0,
		1.0]
	},
	{
		"bufferView":12,
		"type":"SCALAR",
		"componentType":5123,
		"count":62208,
		"byteOffset":0,
		"min":[0],
		"max":[22031]
	},
	{
		"bufferView":13,
		"type":"VEC3",
		"componentType":5126,
		"count":22032,
		"byteOffset":0,
		"min":[-251.90696716308595,
		133.4552459716797,
		-454.972412109375],
		"max":[255.26979064941407,
		328.5241394042969,
		514.0802001953125]
	},
	{
		"bufferView":13,
		"type":"VEC3",
		"componentType":5126,
		"count":22032,
		"byteOffset":12,
		"min":[-0.9890313148498535,
		-0.9412500262260437,
		-0.9994375705718994],
		"max":[0.9890313148498535,
		0.999093770980835,
		0.9994375705718994]
	},
	{
		"bufferView":13,
		"type":"VEC2",
		"componentType":5126,
		"count":22032,
		"byteOffset":24,
		"min":[0.0,
		0.0],
		"max":[1.0,
		1.0]
	},
	{
		"bufferView":14,
		"type":"SCALAR",
		"componentType":5123,
		"count":8448,
		"byteOffset":0,
		"min":[0],
		"max":[2895]
	},
	{
		"bufferView":15,
		"type":"VEC3",
		"componentType":5126,
		"count":2896,
		"byteOffset":0,
		"min":[-249.93687438964845,
		-11.541267395019532,
		-447.6082458496094],
		"max":[253.66549682617188,
		353.0171203613281,
		512.17724609375]
	},
	{
		"bufferView":15,
		"type":"VEC3",
		"componentType":5126,
		"count":2896,
		"byteOffset":12,
		"min":[-0.9890313148498535,
		-0.9412500262260437,
		-0.9994375705718994],
		"max":[0.9890313148498535,
		0.9412500262260437,
		0.9994375705718994]
	},
	{
		"bufferView":15,
		"type":"VEC2",
		"componentType":5126,
		"count":2896,
		"byteOffset":24,
		"min":[0.0,
		0.0],
		"max":[1.0,
		1.0]
	},
	{
		"bufferView":16,
		"type":"SCALAR",
		"componentType":5123,
		"count":32832,
		"byteOffset":0,
		"min":[0],
		"max":[11627]
	},
	{
		"bufferView":17,
		"type":"VEC3",
		"componentType":5126,
		"count":11628,
		"byteOffset":0,
		"min":[-123.98855590820313,
		-41.99036407470703,
		-167.4144287109375],
		"max":[124.4135971069336,
		83.41301727294922,
		167.4144287109375]
	},
	{
		"bufferView":17,
		"type":"VEC3",
		"componentType":5126,
		"count":11628,
		"byteOffset":12,
		"min":[-1.0,
		-1.0,
		-1.0],
		"max":[1.0,
		1.0,
		1.0]
	},
	{
		"bufferView":17,
		"type":"VEC2",
		"componentType":5126,
		"count":11628,
		"byteOffset":24,
		"min":[0.0,
		0.0],
		"max":[1.0,
		1.0]
	},
	{
		"bufferView":18,
		"type":"SCALAR",
		"componentType":5123,
		"count":5760,
		"byteOffset":0,
		"min":[0],
		"max":[1943]
	},
	{
		"bufferView":19,
		"type":"VEC3",
		"componentType":5126,
		"count":1944,
		"byteOffset":0,
		"min":[-127.98914337158203,
		-54.221622467041019,
		-170.98997497558595],
		"max":[127.5641098022461,
		106.93173217773438,
		170.98997497558595]
	},
	{
		"bufferView":19,
		"type":"VEC3",
		"componentType":5126,
		"count":1944,
		"byteOffset":12,
		"min":[-1.0,
		-1.0,
		-1.0],
		"max":[1.0,
		1.0,
		1.0]
	},
	{
		"bufferView":19,
		"type":"VEC2",
		"componentType":5126,
		"count":1944,
		"byteOffset":24,
		"min":[0.0,
		0.0],
		"max":[1.0,
		1.0]
	},
	{
		"bufferView":20,
		"type":"SCALAR",
		"componentType":5123,
		"count":46008,
		"byteOffset":0,
		"min":[0],
		"max":[15411]
	},
	{
		"bufferView":21,
		"type":"VEC3",
		"componentType":5126,
		"count":15412,
		"byteOffset":0,
		"min":[-382.5191345214844,
		-384.9054260253906,
		-431.5854187011719],
		"max":[382.5191345214844,
		414.3133544921875,
		478.21856689453127]
	},
	{
		"bufferView":21,
		"type":"VEC3",
		"componentType":5126,
		"count":15412,
		"byteOffset":12,
		"min":[-1.0,
		-1.0,
		-1.0],
		"max":[1.0,
		1.0,
		1.0]
	},
	{
		"bufferView":21,
		"type":"VEC2",
		"componentType":5126,
		"count":15412,
		"byteOffset":24,
		"min":[-0.4142771363258362,
		-0.00634223036468029],
		"max":[1.4142770767211915,
		1.0063421726226807]
	},
	{
		"bufferView":22,
		"type":"SCALAR",
		"componentType":5123,
		"count":192,
		"byteOffset":0,
		"min":[0],
		"max":[79]
	},
	{
		"bufferView":23,
		"type":"VEC3",
		"componentType":5126,
		"count":80,
		"byteOffset":0,
		"min":[-546.3684692382813,
		-19.87470245361328,
		-535.6810302734375],
		"max":[539.2762451171875,
		17.024240493774415,
		535.6810302734375]
	},
	{
		"bufferView":23,
		"type":"VEC3",
		"componentType":5126,
		"count":80,
		"byteOffset":12,
		"min":[-1.0,
		-1.0,
		-1.0],
		"max":[1.0,
		1.0,
		1.0]
	},
	{
		"bufferView":23,
		"type":"VEC2",
		"componentType":5126,
		"count":80,
		"byteOffset":24,
		"min":[0.0,
		0.0],
		"max":[1.0,
		1.0]
	}],
	"bufferViews":[{
		"buffer":0,
		"byteOffset":0,
		"byteLength":1536,
		"target":34963
	},
	{
		"buffer":0,
		"byteOffset":1536,
		"byteLength":8256,
		"target":34962,
		"byteStride":32
	},
	{
		"buffer":1,
		"byteOffset":0,
		"byteLength":960,
		"target":34963
	},
	{
		"buffer":1,
		"byteOffset":960,
		"byteLength":3808,
		"target":34962,
		"byteStride":32
	},
	{
		"buffer":2,
		"byteOffset":0,
		"byteLength":2304,
		"target":34963
	},
	{
		"buffer":2,
		"byteOffset":2304,
		"byteLength":12416,
		"target":34962,
		"byteStride":32
	},
	{
		"buffer":3,
		"byteOffset":0,
		"byteLength":28800,
		"target":34963
	},
	{
		"buffer":3,
		"byteOffset":28800,
		"byteLength":163232,
		"target":34962,
		"byteStride":32
	},
	{
		"buffer":4,
		"byteOffset":0,
		"byteLength":12156,
		"target":34963
	},
	{
		"buffer":4,
		"byteOffset":12156,
		"byteLength":58016,
		"target":34962,
		"byteStride":32
	},
	{
		"buffer":5,
		"byteOffset":0,
		"byteLength":7488,
		"target":34963
	},
	{
		"buffer":5,
		"byteOffset":7488,
		"byteLength":47104,
		"target":34962,
		"byteStride":32
	},
	{
		"buffer":6,
		"byteOffset":0,
		"byteLength":124416,
		"target":34963
	},
	{
		"buffer":6,
		"byteOffset":124416,
		"byteLength":705024,
		"target":34962,
		"byteStride":32
	},
	{
		"buffer":7,
		"byteOffset":0,
		"byteLength":16896,
		"target":34963
	},
	{
		"buffer":7,
		"byteOffset":16896,
		"byteLength":92672,
		"target":34962,
		"byteStride":32
	},
	{
		"buffer":8,
		"byteOffset":0,
		"byteLength":65664,
		"target":34963
	},
	{
		"buffer":8,
		"byteOffset":65664,
		"byteLength":372096,
		"target":34962,
		"byteStride":32
	},
	{
		"buffer":9,
		"byteOffset":0,
		"byteLength":11520,
		"target":34963
	},
	{
		"buffer":9,
		"byteOffset":11520,
		"byteLength":62208,
		"target":34962,
		"byteStride":32
	},
	{
		"buffer":10,
		"byteOffset":0,
		"byteLength":92016,
		"target":34963
	},
	{
		"buffer":10,
		"byteOffset":92016,
		"byteLength":493184,
		"target":34962,
		"byteStride":32
	},
	{
		"buffer":11,
		"byteOffset":0,
		"byteLength":384,
		"target":34963
	},
	{
		"buffer":11,
		"byteOffset":384,
		"byteLength":2560,
		"target":34962,
		"byteStride":32
	}],
	"buffers":[{
		"uri":"data:application/octet-stream;base64,",
		"byteLength":9792
	},
	{
		"uri":"data:application/octet-stream;base64,",
		"byteLength":4768
	},
	{
		"uri":"data:application/octet-stream;base64,",
		"byteLength":14720
	},
	{
		"uri":"data:application/octet-stream;base64,",
		"byteLength":192032
	},
	{
		"uri":"data:application/octet-stream;base64,",
		"byteLength":70172
	},
	{
		"uri":"data:application/octet-stream;base64,",
		"byteLength":54592
	},
	{
		"uri":"data:application/octet-stream;base64,",
		"byteLength":829440
	},
	{
		"uri":"data:application/octet-stream;base64,",
		"byteLength":109568
	},
	{
		"uri":"data:application/octet-stream;base64,",
		"byteLength":437760
	},
	{
		"uri":"data:application/octet-stream;base64,",
		"byteLength":73728
	},
	{
		"uri":"data:application/octet-stream;base64,",
		"byteLength":585200
	},
	{
		"uri":"data:application/octet-stream;base64,",
		"byteLength":2944
	}]
}